0
SECTION
2
HEADER
9
$INSUNITS
70
4
9
$ACADVER
1
AC1014
9
$HANDSEED
5
FFFF
0
ENDSEC
0
SECTION
2
TABLES
0
TABLE
2
VPORT
5
8
100
AcDbSymbolTable
0
ENDTAB
0
TABLE
2
LTYPE
5
5
100
AcDbSymbolTable
0
LTYPE
5
14
100
AcDbSymbolTableRecord
100
AcDbLinetypeTableRecord
2
BYBLOCK
70
0
0
LTYPE
5
15
100
AcDbSymbolTableRecord
100
AcDbLinetypeTableRecord
2
BYLAYER
70
0
0
LTYPE
5
16
100
AcDbSymbolTableRecord
100
AcDbLinetypeTableRecord
2
DASHED
70
0
3
Dashed __ __ __ __ __ __ __ __ __ __ __ __ __ _
72
65
73
2
40
0.75
49
0.5
74
0
49
-0.25
74
0
0
ENDTAB
0
TABLE
2
LAYER
5
2
100
AcDbSymbolTable
70
2
0
LAYER
5
50
100
AcDbSymbolTableRecord
100
AcDbLayerTableRecord
2
0
70
0
62
7
6
CONTINUOUS
0
ENDTAB
0
TABLE
2
STYLE
5
3
100
AcDbSymbolTable
70
1
0
STYLE
5
11
100
AcDbSymbolTableRecord
100
AcDbTextStyleTableRecord
2
STANDARD
70
0
0
ENDTAB
0
TABLE
2
VIEW
5
6
100
AcDbSymbolTable
70
0
0
ENDTAB
0
TABLE
2
UCS
5
7
100
AcDbSymbolTable
70
0
0
ENDTAB
0
TABLE
2
APPID
5
9
100
AcDbSymbolTable
70
2
0
APPID
5
12
100
AcDbSymbolTableRecord
100
AcDbRegAppTableRecord
2
ACAD
70
0
0
ENDTAB
0
TABLE
2
DIMSTYLE
5
A
100
AcDbSymbolTable
70
1
0
ENDTAB
0
TABLE
2
BLOCK_RECORD
5
1
100
AcDbSymbolTable
70
1
0
BLOCK_RECORD
5
1F
100
AcDbSymbolTableRecord
100
AcDbBlockTableRecord
2
*MODEL_SPACE
0
BLOCK_RECORD
5
1B
100
AcDbSymbolTableRecord
100
AcDbBlockTableRecord
2
*PAPER_SPACE
0
ENDTAB
0
ENDSEC
0
SECTION
2
BLOCKS
0
BLOCK
5
20
100
AcDbEntity
100
AcDbBlockBegin
2
*MODEL_SPACE
0
ENDBLK
5
21
100
AcDbEntity
100
AcDbBlockEnd
0
BLOCK
5
1C
100
AcDbEntity
100
AcDbBlockBegin
2
*PAPER_SPACE
0
ENDBLK
5
1D
100
AcDbEntity
100
AcDbBlockEnd
0
ENDSEC
0
SECTION
2
ENTITIES
0
SPLINE
5
100
100
AcDbEntity
8
0
100
AcDbSpline
70
4
71
3
72
8
73
4
74
0
42
0.000000001
43
0.0000000001
44
0.0000000001
40
0
40
0
40
0
40
0
40
1
40
1
40
1
40
1
41
1
41
1
41
1
41
1
10
2.0312767476994837
20
-0.80882140228068045
30
0
10
2.0312767476994837
20
-0.36881918975626626
30
0
10
2.3912794020929979
20
-0.0088201688618977543
30
0
10
2.8312882760325122
20
-0.0088201688618977543
30
0
0
LINE
5
101
100
AcDbEntity
8
0
100
AcDbLine
10
2.8312882760325122
20
-0.0088201688618977699
30
0
11
19.031287414546718
21
-0.0088201688618977543
31
0
0
SPLINE
5
102
100
AcDbEntity
8
0
100
AcDbSpline
70
4
71
3
72
8
73
4
74
0
42
0.000000001
43
0.0000000001
44
0.0000000001
40
0
40
0
40
0
40
0
40
1
40
1
40
1
40
1
41
1
41
1
41
1
41
1
10
19.031287414546718
20
-0.0088201688618977543
30
0
10
19.471276707963057
20
-0.0088201688618977543
30
0
10
19.831278958634442
20
-0.36881918975626626
30
0
10
19.831278958634442
20
-0.80882140228068045
30
0
0
SPLINE
5
103
100
AcDbEntity
8
0
100
AcDbSpline
70
4
71
3
72
8
73
4
74
0
42
0.000000001
43
0.0000000001
44
0.0000000001
40
0
40
0
40
0
40
0
40
1
40
1
40
1
40
1
41
1
41
1
41
1
41
1
10
19.031277422419024
20
-17.908830400924909
30
0
10
19.471266715835085
20
-17.908830892145769
30
0
10
19.831269368422912
20
-17.548832273171893
30
0
10
19.831269859658196
20
-17.108830060647755
30
0
0
SPLINE
5
104
100
AcDbEntity
8
0
100
AcDbSpline
70
4
71
3
72
8
73
4
74
0
42
0.000000001
43
0.0000000001
44
0.0000000001
40
0
40
0
40
0
40
0
40
1
40
1
40
1
40
1
41
1
41
1
41
1
41
1
10
2.0312676487343282
20
-17.108810188045133
30
0
10
2.0312671574990455
20
-17.548812400569275
30
0
10
2.3912694099756724
20
-17.908811823384138
30
0
10
2.8312782839149127
20
-17.908812314626857
30
0
0
CIRCLE
5
105
100
AcDbEntity
8
0
100
AcDbCircle
10
20.816406557209376
20
-3.1767432765497103
30
0
40
0.59999999999999998
210
-0
220
0
230
1
0
CIRCLE
5
106
100
AcDbEntity
8
0
100
AcDbCircle
10
20.806854536991697
20
-14.74792884242043
30
0
40
0.59999999999999998
210
-0
220
0
230
1
0
CIRCLE
5
107
100
AcDbEntity
8
0
100
AcDbCircle
10
1.0557291415229375
20
-14.747922238921461
30
0
40
0.59999999999999998
210
-0
220
0
230
1
0
CIRCLE
5
108
100
AcDbEntity
8
0
100
AcDbCircle
10
1.0557291415229375
20
-3.1767498800487104
30
0
40
0.59999999999999998
210
-0
220
0
230
1
0
LINE
5
109
100
AcDbEntity
8
0
100
AcDbLine
10
2.0312676487343282
20
-17.108810188045133
30
0
11
2.0312767476994837
21
-0.80882140228068045
31
0
0
LINE
5
110
100
AcDbEntity
8
0
100
AcDbLine
10
19.831278958634442
20
-0.80882140228068045
30
0
11
19.831269859658196
21
-17.108830060647755
31
0
0
LINE
5
111
100
AcDbEntity
8
0
100
AcDbLine
10
19.031277422419024
20
-17.908830400924909
30
0
11
2.8312782839149127
21
-17.908812314626857
31
0
0
CIRCLE
5
112
100
AcDbEntity
8
0
100
AcDbCircle
10
1.0557291415229375
20
-3.1767498800487104
30
0
40
1.2250000000000001
210
0
220
0
230
1
0
CIRCLE
5
113
100
AcDbEntity
8
0
100
AcDbCircle
10
1.0557291415229375
20
-14.747922238921461
30
0
40
1.2250000000000001
210
0
220
0
230
1
0
CIRCLE
5
114
100
AcDbEntity
8
0
100
AcDbCircle
10
20.806854536991697
20
-14.74792884242043
30
0
40
1.2250000000000001
210
0
220
0
230
1
0
CIRCLE
5
115
100
AcDbEntity
8
0
100
AcDbCircle
10
20.816406557209376
20
-3.1767432765497103
30
0
40
1.2250000000000001
210
0
220
0
230
1
0
ENDSEC
0
SECTION
2
OBJECTS
0
DICTIONARY
5
C
100
AcDbDictionary
3
ACAD_GROUP
350
D
3
ACAD_MLINESTYLE
350
17
0
DICTIONARY
5
D
100
AcDbDictionary
0
DICTIONARY
5
1A
330
C
100
AcDbDictionary
0
DICTIONARY
5
17
100
AcDbDictionary
0
ENDSEC
0
EOF
